#!OML:ASF E:\emotionWalksFemale\Project 1\Capture day 1\Session 1\Female1.ASF
:FULLY-SPECIFIED
:DEGREES
727
root 6.64241 15.861 -5.02228 172.844 -62.7568 -177.834
lowerback 3.22059 0.131223 -5.92404
upperback -6.04508 -0.696313 -2.87399
thorax -8.16531 -0.17495 0.367817
lowerneck -13.1315 -2.57054 -3.3945
upperneck 19.2676 -2.90552 -0.740944
head 8.18408 -1.80632 -0.0148901
rclavicle -7.15625e-015 2.70347e-014
rhumerus 20.4633 12.5138 -43.333
rradius 25.9846
rwrist 25.7185
rhand -4.73971 -44.5415
rfingers 7.12502
rthumb -158.957 106.58
lclavicle -7.15625e-015 2.70347e-014
lhumerus 25.3439 -13.1018 56.6426
lradius 27.0693
lwrist -35.1481
lhand -7.01733 -38.694
lfingers 7.12502
lthumb 18.8542 -9.58771
rfemur -18.833 17.9812 18.4974
rtibia 19.8571
rfoot -35.4038 -39.8891
rtoes 17.8648
lfemur 13.4281 -18.3075 -28.6575
ltibia 19.9716
lfoot -20.3472 28.5433
ltoes -0.300174
728
root 6.55489 15.863 -5.08322 173.112 -62.8726 -178.038
lowerback 3.15523 0.0795892 -6.04266
upperback -6.04248 -0.769196 -2.86779
thorax -8.12064 -0.204673 0.447636
lowerneck -13.2278 -2.57819 -3.19695
upperneck 19.1919 -2.89599 -1.00168
head 8.1687 -1.81069 -0.133433
rclavicle -7.95139e-016 2.38542e-014
rhumerus 20.4219 12.0629 -43.3223
rradius 25.8688
rwrist 25.9835
rhand -4.88506 -45.8365
rfingers 7.12502
rthumb -159.096 105.27
lclavicle -7.95139e-016 2.38542e-014
lhumerus 25.4669 -12.9381 56.7851
lradius 26.9189
lwrist -35.4697
lhand -7.20674 -39.1002
lfingers 7.12502
lthumb 18.672 -9.97633
rfemur -19.2788 19.2621 17.9441
rtibia 19.4189
rfoot -36.092 -41.1741
rtoes 17.6443
lfemur 13.8406 -18.0721 -28.6619
ltibia 19.6024
lfoot -19.752 28.2839
ltoes -0.747158
729
root 6.46752 15.8685 -5.14725 173.431 -63.0433 -178.307
lowerback 3.16511 0.018703 -5.97251
upperback -6.05542 -0.858034 -2.96074
thorax -8.13776 -0.257078 0.319619
lowerneck -13.361 -2.57826 -3.30546
upperneck 19.2033 -2.89791 -0.833668
head 8.20092 -1.80103 -0.0618532
rclavicle 3.85642e-014 6.36111e-015
rhumerus 20.4769 12.4486 -43.0673
rradius 25.9565
rwrist 25.6076
rhand -4.74939 -44.266
rfingers 7.12502
rthumb -158.966 106.855
lclavicle 3.85642e-014 6.36111e-015
lhumerus 25.6291 -12.9021 56.7125
lradius 26.795
lwrist -35.6234
lhand -7.05705 -39.7865
lfingers 7.12502
lthumb 18.816 -10.6765
rfemur -19.7059 20.5369 17.3454
rtibia 19.083
rfoot -37.5465 -42.2031
rtoes 18.4468
lfemur 14.2923 -17.9341 -28.7092
ltibia 19.186
lfoot -18.822 28.1522
ltoes -1.80902
730
root 6.37897 15.8731 -5.21443 174.02 -63.191 -178.9
lowerback 3.15074 -0.0182649 -6.09083
upperback -6.04094 -0.926741 -3.06805
thorax -8.11267 -0.290288 0.279287
lowerneck -13.2442 -2.53696 -3.1825
upperneck 18.9122 -2.83851 -0.963422
head 8.07771 -1.77038 -0.113485
rclavicle -2.5842e-014 1.43125e-014
rhumerus 20.442 12.5105 -42.9376
rradius 26.029
rwrist 25.4148
rhand -4.58829 -43.69
rfingers 7.12502
rthumb -158.811 107.448
lclavicle -2.5842e-014 1.43125e-014
lhumerus 25.6577 -13.3342 56.1543
lradius 27.0652
lwrist -35.1417
lhand -6.9341 -39.817
lfingers 7.12502
lthumb 18.9342 -10.7186
rfemur -20.0441 21.6217 16.6865
rtibia 18.7587
rfoot -39.1386 -42.9798
rtoes 19.6001
lfemur 14.7899 -17.6768 -28.8569
ltibia 18.8191
lfoot -18.4233 27.5916
ltoes -0.369997
731
root 6.29179 15.87 -5.28483 174.542 -63.2687 -179.43
lowerback 3.12404 -0.00947852 -6.37259
upperback -6.03589 -0.94065 -3.11659
thorax -8.09233 -0.284006 0.385872
lowerneck -13.1398 -2.48269 -2.63167
upperneck 18.6883 -2.77429 -1.49759
head 7.9664 -1.74931 -0.369594
rclavicle -9.93923e-015 2.06736e-014
rhumerus 20.1877 12.0876 -42.9781
rradius 26.0278
rwrist 25.7371
rhand -4.75474 -43.5756
rfingers 7.12502
rthumb -158.971 107.545
lclavicle -9.93923e-015 2.06736e-014
lhumerus 25.7509 -13.6015 55.9291
lradius 27.1268
lwrist -35.0142
lhand -7.11967 -39.8131
lfingers 7.12502
lthumb 18.7557 -10.6973
rfemur -20.3566 22.8143 16.1143
rtibia 18.4643
rfoot -40.0125 -44.287
rtoes 19.7023
lfemur 15.28 -17.242 -28.9253
ltibia 18.4626
lfoot -17.6111 27.2365
ltoes -1.86307
732
root 6.20527 15.8658 -5.35212 175.008 -63.3187 -179.82
lowerback 3.13388 -0.0199609 -6.50021
upperback -6.10922 -0.979839 -3.1571
thorax -8.1776 -0.296645 0.417221
lowerneck -13.1617 -2.46108 -2.41082
upperneck 18.7064 -2.76081 -1.64974
head 7.97022 -1.74281 -0.455314
rclavicle -2.18663e-014 6.36111e-015
rhumerus 19.991 11.9078 -42.9698
rradius 26.0476
rwrist 25.8894
rhand -5.12242 -44.1388
rfingers 7.12502
rthumb -159.324 106.942
lclavicle -2.18663e-014 6.36111e-015
lhumerus 25.8378 -13.2037 56.3324
lradius 26.8278
lwrist -35.7366
lhand -7.19209 -39.8528
lfingers 7.12502
lthumb 18.6861 -10.7303
rfemur -20.7814 24.0501 15.5188
rtibia 18.2335
rfoot -40.9331 -45.4228
rtoes 20.1841
lfemur 15.6831 -16.9147 -28.9759
ltibia 18.076
lfoot -16.482 27.1819
ltoes -4.47725
733
root 6.11821 15.8627 -5.41631 175.532 -63.4419 -180.259
lowerback 3.17147 -0.0406147 -6.50563
upperback -6.18994 -1.02946 -3.22638
thorax -8.28742 -0.32244 0.351523
lowerneck -13.0457 -2.48274 -2.55366
upperneck 18.6243 -2.81078 -1.4169
head 7.92798 -1.75217 -0.357407
rclavicle 7.95139e-016 -3.49861e-014
rhumerus 19.868 11.7519 -42.9172
rradius 25.9646
rwrist 26.1339
rhand -5.94716 -45.3229
rfingers 7.12502
rthumb -160.117 105.674
lclavicle 7.95139e-016 -3.49861e-014
lhumerus 25.8178 -13.3918 56.2471
lradius 26.9293
lwrist -35.5925
lhand -7.02405 -39.5551
lfingers 7.12502
lthumb 18.8477 -10.4483
rfemur -21.1749 24.678 14.9276
rtibia 17.989
rfoot -42.3322 -45.3719
rtoes 22.4013
lfemur 15.9866 -16.4443 -28.9588
ltibia 17.7418
lfoot -15.2157 26.9122
ltoes -7.08138
734
root 6.03103 15.8588 -5.48405 175.978 -63.676 -180.664
lowerback 3.19971 -0.0573476 -6.5469
upperback -6.19918 -1.06236 -3.25944
thorax -8.31333 -0.337132 0.342859
lowerneck -13.0149 -2.60452 -2.81583
upperneck 18.5736 -2.96458 -1.20631
head 7.91454 -1.82142 -0.260087
rclavicle 2.78299e-014 3.02153e-014
rhumerus 19.6182 11.0351 -42.9317
rradius 25.7869
rwrist 26.9957
rhand -6.87013 -46.1175
rfingers 7.12502
rthumb -161.004 104.79
lclavicle 2.78299e-014 3.02153e-014
lhumerus 25.8481 -13.6235 56.1893
lradius 27.1283
lwrist -35.3673
lhand -6.80569 -39.5499
lfingers 7.12502
lthumb 19.0577 -10.4636
rfemur -21.3869 24.7507 14.5294
rtibia 17.7281
rfoot -43.4573 -44.8734
rtoes 24.4328
lfemur 16.3293 -15.877 -28.8302
ltibia 17.4507
lfoot -14.0654 26.3843
ltoes -10.0912
735
root 5.94241 15.8527 -5.55278 176.416 -63.9205 -181.064
lowerback 3.2291 -0.0939981 -6.58669
upperback -6.1945 -1.11737 -3.26829
thorax -8.32272 -0.361611 0.361359
lowerneck -13.0102 -2.68748 -2.87499
upperneck 18.4156 -3.05555 -1.2347
head 7.86273 -1.86727 -0.267251
rclavicle 3.53837e-014 3.18055e-014
rhumerus 19.5802 11.4988 -42.4915
rradius 26.1573
rwrist 26.2247
rhand -5.69789 -45.5431
rfingers 7.12502
rthumb -159.877 105.479
lclavicle 3.53837e-014 3.18055e-014
lhumerus 25.9736 -13.2971 56.5613
lradius 26.9894
lwrist -35.9141
lhand -6.78312 -39.8873
lfingers 7.12502
lthumb 19.0794 -10.8031
rfemur -21.556 25.1354 14.1109
rtibia 17.4917
rfoot -44.139 -45.0772
rtoes 24.8917
lfemur 16.7355 -15.538 -28.7665
ltibia 17.1574
lfoot -13.9872 25.6994
ltoes -8.3662
736
root 5.85193 15.8439 -5.62017 176.828 -64.1269 -181.423
lowerback 3.25988 -0.135318 -6.49609
upperback -6.20158 -1.17518 -3.32433
thorax -8.34721 -0.397756 0.257992
lowerneck -12.8765 -2.66094 -2.65226
upperneck 18.0978 -3.04453 -1.33279
head 7.72768 -1.84916 -0.328512
rclavicle -3.26007e-014 -2.22639e-014
rhumerus 19.5219 11.6132 -42.2873
rradius 26.29
rwrist 25.9635
rhand -5.13287 -45.4333
rfingers 7.12502
rthumb -159.334 105.647
lclavicle -3.26007e-014 -2.22639e-014
lhumerus 26.0959 -13.5838 56.335
lradius 27.032
lwrist -35.7249
lhand -6.82663 -39.9847
lfingers 7.12502
lthumb 19.0376 -10.8964
rfemur -21.6885 25.3888 13.7294
rtibia 17.2148
rfoot -44.3127 -45.3413
rtoes 24.9555
lfemur 17.1251 -15.4102 -28.8193
ltibia 16.9572
lfoot -14.2198 25.5401
ltoes -6.00486
737
root 5.76131 15.8343 -5.68866 177.219 -64.2759 -181.722
lowerback 3.21916 -0.159342 -6.33198
upperback -6.20048 -1.19631 -3.37869
thorax -8.32283 -0.421691 0.111584
lowerneck -12.7795 -2.68913 -2.36621
upperneck 17.9013 -3.09714 -1.56806
head 7.63663 -1.87341 -0.453772
rclavicle -4.8901e-014 -3.18055e-015
rhumerus 19.4105 11.4278 -42.2356
rradius 26.3147
rwrist 25.997
rhand -5.22669 -45.4867
rfingers 7.12502
rthumb -159.424 105.584
lclavicle -4.8901e-014 -3.18055e-015
lhumerus 26.2032 -14.2413 55.7519
lradius 27.278
lwrist -35.0344
lhand -6.69592 -39.7052
lfingers 7.12502
lthumb 19.1633 -10.6293
rfemur -21.7928 25.6171 13.3826
rtibia 16.8942
rfoot -44.4008 -45.4511
rtoes 25.2074
lfemur 17.4222 -15.2815 -28.8794
ltibia 16.8839
lfoot -13.9899 25.7088
ltoes -6.11766
738
root 5.67205 15.821 -5.76256 177.6 -64.4362 -182.027
lowerback 3.21835 -0.205125 -6.21874
upperback -6.23204 -1.2593 -3.43853
thorax -8.35627 -0.4623 -0.00822743
lowerneck -12.8414 -2.73572 -2.13841
upperneck 17.9486 -3.16673 -1.77535
head 7.65559 -1.91181 -0.567885
rclavicle 3.57812e-015 2.22639e-014
rhumerus 19.3061 11.3238 -42.2388
rradius 26.372
rwrist 25.8489
rhand -5.33005 -45.0229
rfingers 7.12502
rthumb -159.524 106.037
lclavicle 3.57812e-015 2.22639e-014
lhumerus 26.2885 -14.4454 55.5641
lradius 27.2377
lwrist -34.9817
lhand -6.67825 -39.4572
lfingers 7.12502
lthumb 19.1802 -10.383
rfemur -21.8538 26.5475 12.9307
rtibia 16.5777
rfoot -45.1409 -46.1029
rtoes 25.2744
lfemur 17.6374 -14.9175 -28.7783
ltibia 16.8798
lfoot -13.3283 25.1293
ltoes -6.13346
739
root 5.58204 15.805 -5.83863 178.032 -64.7245 -182.424
lowerback 3.28628 -0.317533 -6.17676
upperback -6.28477 -1.42482 -3.48698
thorax -8.44882 -0.546829 -0.0655619
lowerneck -12.8934 -2.70222 -2.03334
upperneck 17.9654 -3.13551 -1.80102
head 7.66784 -1.89234 -0.591371
rclavicle 5.84427e-014 -2.54444e-014
rhumerus 19.2971 11.4275 -42.1707
rradius 26.4148
rwrist 25.5456
rhand -5.37201 -44.4997
rfingers 7.12502
rthumb -159.564 106.556
lclavicle 5.84427e-014 -2.54444e-014
lhumerus 26.2435 -14.6124 55.3685
lradius 27.2433
lwrist -34.8687
lhand -6.75228 -39.4283
lfingers 7.12502
lthumb 19.1091 -10.3471
rfemur -21.8316 27.5441 12.433
rtibia 16.2606
rfoot -46.2814 -46.9674
rtoes 25.6502
lfemur 17.8298 -14.5139 -28.6431
ltibia 16.9352
lfoot -12.3393 24.5061
ltoes -8.19635
740
root 5.49075 15.7894 -5.91261 178.613 -65.0189 -182.962
lowerback 3.28397 -0.405738 -6.2071
upperback -6.28552 -1.54439 -3.47968
thorax -8.44248 -0.603112 -0.028681
lowerneck -12.8409 -2.6176 -1.81497
upperneck 17.7786 -3.0293 -1.97404
head 7.5901 -1.83972 -0.669165
rclavicle 5.4467e-014 1.74931e-014
rhumerus 19.3401 11.6138 -41.8529
rradius 26.4578
rwrist 25.1455
rhand -5.25526 -45.1557
rfingers 7.12502
rthumb -159.452 105.912
lclavicle 5.4467e-014 1.74931e-014
lhumerus 26.1627 -15.3564 54.6652
lradius 27.7362
lwrist -33.7955
lhand -6.63184 -39.21
lfingers 7.12502
lthumb 19.2249 -10.1402
rfemur -21.7766 28.0935 11.9648
rtibia 15.9539
rfoot -47.8268 -47.0345
rtoes 27.6407
lfemur 17.9912 -14.1386 -28.6154
ltibia 17.0304
lfoot -11.1297 24.3439
ltoes -12.9031
741
root 5.39813 15.7737 -5.9883 179.33 -65.2483 -183.616
lowerback 3.19416 -0.436178 -6.32555
upperback -6.26077 -1.5816 -3.46115
thorax -8.35877 -0.615041 0.0595979
lowerneck -12.8814 -2.58647 -1.64758
upperneck 17.713 -2.98754 -2.13187
head 7.57021 -1.82186 -0.743575
rclavicle -2.14687e-014 4.77083e-014
rhumerus 19.29 11.5621 -41.5593
rradius 26.5697
rwrist 24.7334
rhand -5.08058 -45.9486
rfingers 7.12502
rthumb -159.284 105.137
lclavicle -2.14687e-014 4.77083e-014
lhumerus 26.191 -15.4542 54.6377
lradius 27.869
lwrist -33.644
lhand -6.63969 -39.1512
lfingers 7.12502
lthumb 19.2173 -10.0806
rfemur -21.7721 28.4883 11.4952
rtibia 15.7404
rfoot -49.5529 -46.7035
rtoes 29.884
lfemur 18.1865 -13.8152 -28.6434
ltibia 17.0617
lfoot -10.2418 23.929
ltoes -15.9396
